<svg xmlns="http://www.w3.org/2000/svg" viewBox="0 0 63.69 65.53"><defs><style>.cls-1{fill:#fff;}</style></defs><g id="Capa_2" data-name="Capa 2"><g id="Page_1" data-name="Page 1"><g id="Header"><polygon class="cls-1" points="49.95 0 0 0 0 13.74 49.95 13.74 49.95 65.53 63.69 65.53 63.69 13.74 63.69 0 49.95 0"/><rect class="cls-1" y="51.8" width="13.74" height="13.74" transform="translate(65.53 51.8) rotate(90)"/><path class="cls-1" d="M14.78,39.91q0-6.52,2.9-9.68c1.93-2.11,4.88-3.16,8.83-3.16a28.78,28.78,0,0,1,4.19.28,22.2,22.2,0,0,1,3.66.83l-1.07,4.65c-1.07-.25-2.15-.46-3.25-.61A22.53,22.53,0,0,0,27,32a5.69,5.69,0,0,0-4.74,1.91c-1,1.27-1.51,3.3-1.51,6.07s.46,4.63,1.37,5.77a5,5,0,0,0,4.12,1.7A12.14,12.14,0,0,0,30,47V42.59H25.82V38h9.44V50.23a22.9,22.9,0,0,1-9.72,1.84q-5.44,0-8.1-3T14.78,39.91Z"/></g></g></g></svg>