<?xml version="1.0" encoding="utf-8"?>
<!-- Generator: Adobe Illustrator 26.0.1, SVG Export Plug-In . SVG Version: 6.00 Build 0)  -->
<!DOCTYPE svg PUBLIC "-//W3C//DTD SVG 1.1//EN" "http://www.w3.org/Graphics/SVG/1.1/DTD/svg11.dtd" [
	<!ENTITY ns_extend "http://ns.adobe.com/Extensibility/1.0/">
	<!ENTITY ns_ai "http://ns.adobe.com/AdobeIllustrator/10.0/">
	<!ENTITY ns_graphs "http://ns.adobe.com/Graphs/1.0/">
	<!ENTITY ns_vars "http://ns.adobe.com/Variables/1.0/">
	<!ENTITY ns_imrep "http://ns.adobe.com/ImageReplacement/1.0/">
	<!ENTITY ns_sfw "http://ns.adobe.com/SaveForWeb/1.0/">
	<!ENTITY ns_custom "http://ns.adobe.com/GenericCustomNamespace/1.0/">
	<!ENTITY ns_adobe_xpath "http://ns.adobe.com/XPath/1.0/">
]>
<svg version="1.1" id="Capa_1" xmlns:x="&ns_extend;" xmlns:i="&ns_ai;" xmlns:graph="&ns_graphs;"
	 xmlns="http://www.w3.org/2000/svg" xmlns:xlink="http://www.w3.org/1999/xlink" x="0px" y="0px" viewBox="0 0 549.8 144.6"
	 style="enable-background:new 0 0 549.8 144.6;" xml:space="preserve">
<style type="text/css">
	.st0{fill:#FFFFFF;}
</style>
<metadata>
	<sfw  xmlns="&ns_sfw;">
		<slices></slices>
		<sliceSourceBounds  bottomLeftOrigin="true" height="144.6" width="547.6" x="-50.7" y="-334.9"></sliceSourceBounds>
	</sfw>
</metadata>
<g>
	<g>
		<polygon class="st0" points="521.4,0 -0.9,0 -0.9,25.3 521.4,25.3 521.4,144.6 546.7,144.6 546.7,25.3 546.7,0 		"/>
	</g>
	<g>
		
			<rect x="-0.9" y="119.3" transform="matrix(-1.836970e-16 1 -1 -1.836970e-16 143.69 120.2198)" class="st0" width="25.3" height="25.3"/>
	</g>
	<g>
		<path class="st0" d="M24.7,72.3c0-4.5,1.4-7.9,4.1-10.2c2.7-2.2,6.9-3.4,12.4-3.4c1.5,0,2.9,0,4.1,0.1c1.2,0.1,2.4,0.2,3.5,0.4
			c1.1,0.2,2.3,0.5,3.5,0.8l-1.6,6.2c-3.4-0.6-6.5-1-9-1c-2.9,0-4.9,0.5-6.2,1.6c-1.3,1.1-1.9,2.8-1.9,5.2c0,2.4,0.6,4,1.9,5
			s3.2,1.5,5.7,1.5c1.9,0,3.4-0.1,4.7-0.4v-2.9h-5.3v-5.8h13v13c-3.8,1.5-8.4,2.3-13.8,2.3c-5,0-8.8-1-11.3-3.1S24.7,76.5,24.7,72.3
			z"/>
		<path class="st0" d="M71.9,84.8c-5.1,0-9-1-11.6-3.1c-2.6-2.1-4-5.4-4-10c0-4.4,1.3-7.7,3.8-9.8c2.5-2.1,6.5-3.1,11.8-3.1
			c5.3,0,9.3,1,11.8,3.1c2.5,2.1,3.8,5.3,3.8,9.7c0,4.6-1.3,8-3.9,10C80.9,83.7,77,84.8,71.9,84.8z M71.9,78.7c2.2,0,3.8-0.5,5-1.6
			c1.2-1.1,1.7-2.9,1.7-5.4c0-2.5-0.6-4.3-1.7-5.4c-1.2-1.1-2.8-1.6-5-1.6c-2.1,0-3.7,0.5-5,1.5c-1.2,1-1.8,2.8-1.8,5.4
			c0,1.8,0.3,3.1,0.8,4.2c0.6,1,1.4,1.7,2.4,2.2C69.4,78.5,70.5,78.7,71.9,78.7z"/>
		<path class="st0" d="M91.1,84.4V59.1h7.7l11.7,14.1V59.2h7.8v25.2h-7.7L98.9,71v13.4H91.1z"/>
		<path class="st0" d="M121.8,84.4v-5.9l15-13v0h-14.2v-6.3h25.9V65l-14.6,13v0h15.7v6.3H121.8z"/>
		<path class="st0" d="M150.9,84.4L162,59.1h9.6l11.1,25.3H173l-1.5-3.9h-9.8l-1.5,3.9H150.9z M163.6,74.4h5.9l-2.9-8.9L163.6,74.4z
			"/>
		<path class="st0" d="M185.4,84.4V59.2h8.7v18.3h15.5v7H185.4z"/>
		<path class="st0" d="M226.8,84.8c-5.1,0-9-1-11.6-3.1c-2.6-2.1-4-5.4-4-10c0-4.4,1.3-7.7,3.8-9.8c2.5-2.1,6.5-3.1,11.8-3.1
			c5.3,0,9.3,1,11.8,3.1c2.5,2.1,3.8,5.3,3.8,9.7c0,4.6-1.3,8-3.9,10C235.8,83.7,231.9,84.8,226.8,84.8z M226.8,78.7
			c2.2,0,3.8-0.5,5-1.6c1.2-1.1,1.7-2.9,1.7-5.4c0-2.5-0.6-4.3-1.7-5.4c-1.2-1.1-2.8-1.6-5-1.6c-2.1,0-3.7,0.5-5,1.5
			c-1.2,1-1.8,2.8-1.8,5.4c0,1.8,0.3,3.1,0.8,4.2c0.6,1,1.4,1.7,2.4,2.2C224.2,78.5,225.4,78.7,226.8,78.7z"/>
		<path class="st0" d="M250.3,68.9l-5.8-0.7c0.7-2.4,1.1-4.6,1.1-6.6c0-0.4,0-0.9,0-1.3c0-0.4-0.1-0.8-0.1-1.2h7.1
			c0,0.2,0,0.4,0,0.6c0,0.2,0,0.4,0,0.6c0,1.8-0.2,3.3-0.6,4.7C251.6,66.4,251.1,67.7,250.3,68.9z"/>
		<path class="st0" d="M281.7,60.2l-1.5,6c-0.8-0.2-1.8-0.5-3-0.7c-1.2-0.2-2.6-0.4-4-0.5c-1.4-0.1-2.8-0.2-4.1-0.2
			c-1.6,0-2.8,0.2-3.6,0.5c-0.8,0.3-1.2,0.8-1.2,1.4c0,0.4,0.2,0.7,0.7,0.9c0.5,0.2,1.3,0.4,2.6,0.6c1.2,0.2,3,0.4,5.3,0.7
			c2.5,0.4,4.5,0.8,6,1.4c1.5,0.6,2.6,1.4,3.3,2.4c0.7,1,1,2.2,1,3.7c0,2.9-1.3,5-4,6.4c-2.6,1.4-6.4,2.1-11.3,2.1
			c-1.5,0-3.1-0.1-4.8-0.2c-1.6-0.1-3.2-0.4-4.8-0.6c-1.6-0.3-3-0.6-4.4-1l1.6-6c1.4,0.4,2.8,0.8,4.4,1.1c1.5,0.3,3.1,0.6,4.6,0.7
			c1.5,0.2,3,0.3,4.4,0.3c1.9,0,3.2-0.2,3.9-0.5c0.7-0.3,1-0.8,1-1.3c0-0.4-0.3-0.8-1-1c-0.7-0.2-1.8-0.4-3.4-0.6
			c-1.6-0.2-3.7-0.5-6.3-1c-2.9-0.6-5-1.4-6.3-2.6c-1.3-1.1-1.9-2.7-1.9-4.7c0-2.7,1.2-4.8,3.5-6.3c2.3-1.4,6-2.2,11-2.2
			c2.5,0,4.8,0.2,7,0.5C278.7,59.5,280.4,59.9,281.7,60.2z"/>
		<path class="st0" d="M299,84.4V59.2h8.8l7.5,12.1l7.6-12.1h8.4v25.2h-8V69.6l-6.3,10.2h-3.9l-6.1-9.9v14.5H299z"/>
		<path class="st0" d="M335.8,74.9V59.2h8.5v15.3c0,1.4,0.5,2.5,1.6,3.1c1.1,0.6,2.5,0.9,4.3,0.9c1.9,0,3.3-0.3,4.3-1
			c1-0.6,1.5-1.6,1.5-3V59.2h8.5v15.8c0,3.4-1.2,5.9-3.6,7.5c-2.4,1.6-6,2.4-10.8,2.4c-4.8,0-8.4-0.8-10.8-2.4
			C337,80.8,335.8,78.3,335.8,74.9z"/>
		<path class="st0" d="M394.3,60.2l-1.5,6c-0.8-0.2-1.8-0.5-3-0.7c-1.2-0.2-2.6-0.4-4-0.5c-1.4-0.1-2.8-0.2-4.1-0.2
			c-1.6,0-2.8,0.2-3.6,0.5c-0.8,0.3-1.2,0.8-1.2,1.4c0,0.4,0.2,0.7,0.7,0.9c0.5,0.2,1.3,0.4,2.6,0.6c1.2,0.2,3,0.4,5.3,0.7
			c2.5,0.4,4.5,0.8,6,1.4c1.5,0.6,2.6,1.4,3.3,2.4c0.7,1,1,2.2,1,3.7c0,2.9-1.3,5-4,6.4c-2.6,1.4-6.4,2.1-11.3,2.1
			c-1.5,0-3.1-0.1-4.8-0.2c-1.6-0.1-3.2-0.4-4.8-0.6c-1.6-0.3-3-0.6-4.4-1l1.6-6c1.4,0.4,2.8,0.8,4.4,1.1c1.5,0.3,3.1,0.6,4.6,0.7
			c1.5,0.2,3,0.3,4.4,0.3c1.9,0,3.2-0.2,3.9-0.5c0.7-0.3,1-0.8,1-1.3c0-0.4-0.3-0.8-1-1c-0.7-0.2-1.8-0.4-3.4-0.6
			c-1.6-0.2-3.7-0.5-6.3-1c-2.9-0.6-5-1.4-6.3-2.6c-1.3-1.1-1.9-2.7-1.9-4.7c0-2.7,1.2-4.8,3.5-6.3c2.3-1.4,6-2.2,11-2.2
			c2.5,0,4.8,0.2,7,0.5C391.3,59.5,393,59.9,394.3,60.2z"/>
		<path class="st0" d="M399,84.4V59.2H424v6.4h-16.5v3.2H423v5.8h-15.5V78h17.4v6.3H399z"/>
		<path class="st0" d="M428.1,74.9V59.2h8.5v15.3c0,1.4,0.5,2.5,1.6,3.1c1.1,0.6,2.5,0.9,4.3,0.9c1.9,0,3.3-0.3,4.3-1
			c1-0.6,1.5-1.6,1.5-3V59.2h8.5v15.8c0,3.4-1.2,5.9-3.6,7.5c-2.4,1.6-6,2.4-10.8,2.4c-4.8,0-8.4-0.8-10.8-2.4
			C429.3,80.8,428.1,78.3,428.1,74.9z"/>
		<path class="st0" d="M461.4,84.4V59.2h8.8l7.5,12.1l7.6-12.1h8.4v25.2h-8V69.6l-6.3,10.2h-3.9l-6.1-9.9v14.5H461.4z"/>
	</g>
	<g>
		<path class="st0" d="M27.1,109.6c0-2.2,0.2-4,0.7-5.4c0.5-1.4,1.3-2.4,2.4-3s2.6-1,4.6-1c1.9,0,3.4,0.3,4.5,1s1.9,1.7,2.4,3
			c0.5,1.4,0.7,3.2,0.7,5.4c0,3.4-0.6,5.8-1.8,7.3s-3.2,2.2-5.9,2.2c-2.8,0-4.7-0.7-5.9-2.2S27.1,113,27.1,109.6z M29.3,109.6
			c0,1.9,0.2,3.5,0.6,4.6c0.4,1.1,1,1.9,1.8,2.4c0.8,0.5,1.9,0.7,3.2,0.7c1.3,0,2.4-0.2,3.2-0.7c0.8-0.5,1.4-1.3,1.8-2.4
			c0.4-1.1,0.6-2.7,0.6-4.6c0-1.9-0.2-3.4-0.5-4.5c-0.4-1.1-0.9-1.9-1.7-2.4c-0.8-0.5-1.9-0.7-3.3-0.7c-1.4,0-2.5,0.2-3.3,0.7
			c-0.8,0.5-1.4,1.3-1.7,2.4C29.5,106.2,29.3,107.7,29.3,109.6z"/>
		<path class="st0" d="M49.3,118.7v-15h-3v-1.4l3-0.2v-0.8c0-2.9,0.5-4.9,1.5-6.2c1-1.3,2.5-1.9,4.4-1.9c0.7,0,1.4,0.1,2,0.2
			c0.7,0.1,1.4,0.3,2.1,0.5l-0.3,1.6c-1.2-0.4-2.4-0.5-3.4-0.5c-1.4,0-2.5,0.5-3.2,1.5c-0.7,1-1.1,2.6-1.1,4.9v0.7h5.8v1.6h-5.8v15
			H49.3z"/>
		<path class="st0" d="M73.3,118.7V94.9h2.2l8.1,12.8l8.1-12.8h2.1v23.8h-2V98l-7.8,12.2H83l-7.7-12.2v20.6H73.3z"/>
		<path class="st0" d="M107.4,119.1c-2.4,0-4.3-0.7-5.6-2.1c-1.3-1.4-2-3.7-2-6.8c0-2.5,0.4-4.5,1.1-5.9c0.7-1.5,1.7-2.5,2.9-3.1
			s2.6-0.9,4.1-0.9c2.2,0,3.8,0.6,4.9,1.8c1.1,1.2,1.6,3.2,1.6,5.9c0,0.1,0,0.3,0,0.5c0,0.2,0,0.4,0,0.6c-0.6,0-1.5,0.1-2.7,0.2
			c-1.2,0.1-2.7,0.2-4.3,0.3c-1.7,0.1-3.5,0.1-5.4,0.1c0,0.2,0,0.5,0,0.8c0,2.5,0.5,4.3,1.5,5.4c1,1,2.4,1.6,4.2,1.6
			c1.1,0,2.2-0.1,3.3-0.3c1.1-0.2,2.1-0.4,2.9-0.6l0.3,1.6c-0.9,0.3-1.9,0.5-3.1,0.7C110,119,108.7,119.1,107.4,119.1z M102,108.1
			c1.6,0,3.2,0,4.6-0.1c1.5-0.1,2.7-0.1,3.7-0.2c1-0.1,1.7-0.1,2-0.2c0-2.1-0.4-3.6-1.1-4.5c-0.7-0.9-1.9-1.3-3.5-1.3
			c-0.8,0-1.7,0.2-2.5,0.5c-0.8,0.4-1.5,1-2.1,1.9C102.5,105.1,102.2,106.4,102,108.1z"/>
		<path class="st0" d="M120.1,118.7v-18.2h1.9v1.6c0.9-0.5,1.9-1,2.8-1.3c1-0.4,2-0.5,3.1-0.5c1,0,1.9,0.2,2.5,0.6
			c0.6,0.4,1.1,0.9,1.4,1.5c0.8-0.5,1.7-1,2.8-1.4c1.1-0.5,2.3-0.7,3.7-0.7c1.2,0,2.1,0.2,2.8,0.7s1.2,1.1,1.4,1.8
			c0.3,0.7,0.4,1.5,0.4,2.3v13.6H141v-13.1c0-0.6-0.1-1.1-0.3-1.7s-0.5-1-1-1.4c-0.5-0.4-1.2-0.6-2.1-0.6c-1.1,0-2,0.2-2.9,0.5
			c-0.9,0.4-1.6,0.7-2.3,1.2c0.1,0.3,0.2,0.6,0.2,0.9c0,0.3,0.1,0.6,0.1,0.9v13.2h-2.1v-13c0-0.5-0.1-1.1-0.3-1.7
			c-0.2-0.6-0.5-1-1-1.4c-0.5-0.4-1.2-0.6-2.1-0.6c-0.9,0-1.8,0.1-2.6,0.4c-0.8,0.3-1.6,0.7-2.4,1.2v15H120.1z"/>
		<path class="st0" d="M148.8,109.6c0-2.2,0.2-4,0.7-5.4c0.5-1.4,1.3-2.4,2.4-3s2.6-1,4.6-1c1.9,0,3.4,0.3,4.5,1s1.9,1.7,2.4,3
			c0.5,1.4,0.7,3.2,0.7,5.4c0,3.4-0.6,5.8-1.8,7.3s-3.2,2.2-5.9,2.2c-2.8,0-4.7-0.7-5.9-2.2S148.8,113,148.8,109.6z M150.9,109.6
			c0,1.9,0.2,3.5,0.6,4.6c0.4,1.1,1,1.9,1.8,2.4c0.8,0.5,1.9,0.7,3.2,0.7c1.3,0,2.4-0.2,3.2-0.7c0.8-0.5,1.4-1.3,1.8-2.4
			c0.4-1.1,0.6-2.7,0.6-4.6c0-1.9-0.2-3.4-0.5-4.5c-0.4-1.1-0.9-1.9-1.7-2.4c-0.8-0.5-1.9-0.7-3.3-0.7c-1.4,0-2.5,0.2-3.3,0.7
			c-0.8,0.5-1.4,1.3-1.7,2.4C151.1,106.2,150.9,107.7,150.9,109.6z"/>
		<path class="st0" d="M171.9,100.5v2.3c1-0.9,2-1.6,2.9-2c0.9-0.4,1.9-0.6,2.9-0.6c1,0,1.9,0.1,2.7,0.4l-0.3,1.9
			c-0.9-0.2-1.7-0.4-2.6-0.4c-0.9,0-1.7,0.2-2.6,0.6c-0.9,0.4-1.8,1-2.8,1.9v14.1h-2.1v-18.2H171.9z"/>
		<path class="st0" d="M185.8,96.4c-0.5,0-0.8-0.1-1-0.3c-0.2-0.2-0.3-0.5-0.3-1c0-0.5,0.1-0.8,0.3-1c0.2-0.2,0.5-0.3,1-0.3
			c0.5,0,0.8,0.1,1,0.3c0.2,0.2,0.3,0.5,0.3,1c0,0.5-0.1,0.8-0.3,1C186.6,96.3,186.3,96.4,185.8,96.4z M184.7,118.7v-18.2h2.1v18.2
			H184.7z"/>
		<path class="st0" d="M200.1,119.1c-2.4,0-4.3-0.7-5.6-2.1c-1.3-1.4-2-3.7-2-6.8c0-2.5,0.4-4.5,1.1-5.9c0.7-1.5,1.7-2.5,2.9-3.1
			s2.6-0.9,4.1-0.9c2.2,0,3.8,0.6,4.9,1.8c1.1,1.2,1.6,3.2,1.6,5.9c0,0.1,0,0.3,0,0.5c0,0.2,0,0.4,0,0.6c-0.6,0-1.5,0.1-2.7,0.2
			c-1.2,0.1-2.7,0.2-4.3,0.3c-1.7,0.1-3.5,0.1-5.4,0.1c0,0.2,0,0.5,0,0.8c0,2.5,0.5,4.3,1.5,5.4c1,1,2.4,1.6,4.2,1.6
			c1.1,0,2.2-0.1,3.3-0.3c1.1-0.2,2.1-0.4,2.9-0.6l0.3,1.6c-0.9,0.3-1.9,0.5-3.1,0.7C202.7,119,201.5,119.1,200.1,119.1z
			 M194.8,108.1c1.6,0,3.2,0,4.6-0.1c1.5-0.1,2.7-0.1,3.7-0.2c1-0.1,1.7-0.1,2-0.2c0-2.1-0.4-3.6-1.1-4.5c-0.7-0.9-1.9-1.3-3.5-1.3
			c-0.8,0-1.7,0.2-2.5,0.5c-0.8,0.4-1.5,1-2.1,1.9C195.3,105.1,194.9,106.4,194.8,108.1z"/>
		<path class="st0" d="M211.4,118l0.4-1.6c0.7,0.3,1.6,0.5,2.7,0.7c1.1,0.2,2.2,0.3,3.2,0.3c1.6,0,2.8-0.3,3.6-0.8
			c0.8-0.5,1.2-1.3,1.2-2.4c0-1.1-0.4-1.9-1.3-2.4c-0.8-0.5-2.1-1-3.8-1.5c-1-0.3-2-0.6-2.8-1s-1.5-1-1.9-1.6s-0.7-1.5-0.7-2.5
			c0-1.5,0.6-2.7,1.7-3.6c1.1-0.9,2.8-1.3,5-1.3c0.9,0,1.8,0.1,2.7,0.2c0.9,0.2,1.6,0.4,2.3,0.6l-0.4,1.6c-0.6-0.2-1.3-0.4-2.1-0.5
			c-0.8-0.2-1.6-0.2-2.5-0.2c-1.5,0-2.7,0.3-3.4,0.8c-0.8,0.6-1.2,1.3-1.2,2.2c0,0.7,0.2,1.3,0.6,1.8c0.4,0.5,1,0.8,1.8,1.1
			c0.7,0.3,1.6,0.6,2.5,0.8c1.2,0.3,2.2,0.7,3,1.1c0.9,0.4,1.5,1,2,1.7c0.5,0.7,0.7,1.6,0.7,2.6c0,1.7-0.6,3-1.9,3.8
			c-1.3,0.8-3,1.2-5,1.2c-1.1,0-2.3-0.1-3.4-0.3C213.2,118.6,212.2,118.3,211.4,118z"/>
		<path class="st0" d="M239.9,114.5c0-1.5,0.4-2.6,1.3-3.3c0.8-0.8,2.1-1.3,3.7-1.7c1.6-0.4,3.7-0.7,6.1-0.9v-3c0-1.2-0.4-2-1.1-2.7
			c-0.7-0.6-1.8-0.9-3.3-0.9c-0.7,0-1.5,0.1-2.4,0.2c-0.9,0.1-1.8,0.3-2.7,0.6l-0.4-1.7c2-0.6,3.8-0.9,5.6-0.9
			c2.1,0,3.6,0.4,4.7,1.3c1.1,0.9,1.6,2.3,1.6,4.1v9.5c0,0.8,0.1,1.3,0.3,1.6c0.2,0.3,0.5,0.4,1,0.4c0.4,0,0.7-0.1,1-0.2l0.3,1.6
			c-0.6,0.3-1.3,0.5-1.9,0.5c-1.6,0-2.4-0.9-2.6-2.7c-0.8,0.7-1.8,1.3-2.9,1.9c-1.1,0.6-2.4,0.8-3.8,0.8c-1.3,0-2.4-0.4-3.2-1.1
			C240.3,117.2,239.9,116,239.9,114.5z M242,114.3c0,1,0.3,1.8,0.8,2.4c0.5,0.5,1.3,0.8,2.2,0.8c1,0,2.1-0.2,3.1-0.7
			c1.1-0.5,2-1.1,2.8-1.9v-5c-1.7,0.1-3.3,0.3-4.6,0.6c-1.4,0.3-2.4,0.7-3.2,1.3C242.4,112.4,242,113.2,242,114.3z"/>
		<path class="st0" d="M260.2,118.7v-18.2h1.9v1.6c1.1-0.6,2.2-1.1,3.2-1.4c1-0.4,2.2-0.5,3.4-0.5c1.6,0,2.8,0.4,3.7,1.2
			c0.9,0.8,1.3,2,1.3,3.7v13.6h-2.1v-13.1c0-1.1-0.3-2-0.9-2.7c-0.6-0.6-1.5-1-2.8-1c-1,0-2,0.2-2.9,0.5c-0.9,0.3-1.8,0.7-2.8,1.2
			v15H260.2z"/>
		<path class="st0" d="M291.8,118.7l-0.3-1.7c-1,0.7-2,1.2-3,1.5c-1,0.3-1.9,0.5-2.9,0.5c-1.9,0-3.4-0.8-4.5-2.3
			c-1.1-1.5-1.6-3.8-1.6-6.7c0-3.4,0.7-5.9,2-7.5c1.3-1.6,3.3-2.4,6.1-2.4c0.6,0,1.3,0,1.9,0.1c0.7,0.1,1.4,0.2,2,0.3v-7.1h2.1v25.2
			H291.8z M291.5,115.4v-13.1c-0.8-0.2-1.5-0.3-2.1-0.4c-0.6-0.1-1.2-0.1-1.7-0.1c-2.1,0-3.6,0.6-4.6,1.9c-1,1.2-1.5,3.3-1.5,6.3
			c0,2.4,0.4,4.2,1.2,5.5c0.8,1.2,1.9,1.9,3.4,1.9c0.9,0,1.7-0.1,2.5-0.4C289.6,116.5,290.5,116.1,291.5,115.4z"/>
		<path class="st0" d="M310.8,107.2c0-4.5,0.9-7.8,2.7-9.8c1.8-2,4.3-2.9,7.7-2.9c1.2,0,2.4,0.1,3.3,0.2c1,0.1,2,0.3,3,0.6l-0.4,1.8
			c-1-0.2-1.9-0.4-2.8-0.5c-0.9-0.1-1.9-0.2-2.9-0.2c-1.8,0-3.3,0.3-4.6,1c-1.2,0.7-2.2,1.8-2.8,3.4c-0.6,1.6-1,3.7-1,6.4
			c0,2.5,0.3,4.4,0.9,5.9c0.6,1.5,1.5,2.5,2.7,3.1c1.2,0.6,2.7,1,4.4,1c1.1,0,2.3-0.1,3.5-0.2c1.2-0.2,2.3-0.4,3.2-0.7l0.4,1.8
			c-2.1,0.7-4.6,1-7.4,1c-2.1,0-3.9-0.4-5.4-1.1c-1.5-0.7-2.6-2-3.4-3.7C311.2,112.5,310.8,110.2,310.8,107.2z"/>
		<path class="st0" d="M331.9,109.6c0-2.2,0.2-4,0.7-5.4c0.5-1.4,1.3-2.4,2.4-3s2.6-1,4.6-1c1.9,0,3.4,0.3,4.5,1s1.9,1.7,2.4,3
			c0.5,1.4,0.7,3.2,0.7,5.4c0,3.4-0.6,5.8-1.8,7.3s-3.2,2.2-5.9,2.2c-2.8,0-4.7-0.7-5.9-2.2S331.9,113,331.9,109.6z M334,109.6
			c0,1.9,0.2,3.5,0.6,4.6c0.4,1.1,1,1.9,1.8,2.4c0.8,0.5,1.9,0.7,3.2,0.7c1.3,0,2.4-0.2,3.2-0.7c0.8-0.5,1.4-1.3,1.8-2.4
			c0.4-1.1,0.6-2.7,0.6-4.6c0-1.9-0.2-3.4-0.5-4.5c-0.4-1.1-0.9-1.9-1.7-2.4c-0.8-0.5-1.9-0.7-3.3-0.7c-1.4,0-2.5,0.2-3.3,0.7
			c-0.8,0.5-1.4,1.3-1.7,2.4C334.2,106.2,334,107.7,334,109.6z"/>
		<path class="st0" d="M355.1,93.5v20.6c0,1.3,0.2,2.2,0.6,2.5s0.9,0.6,1.5,0.6c0.5,0,1.1-0.1,1.8-0.3l0.2,1.7
			c-0.4,0.1-0.8,0.2-1.2,0.3c-0.4,0.1-0.9,0.1-1.3,0.1c-0.7,0-1.4-0.1-1.9-0.4c-0.5-0.3-1-0.7-1.3-1.4c-0.3-0.7-0.5-1.7-0.5-3V93.5
			H355.1z"/>
		<path class="st0" d="M365.4,93.5v20.6c0,1.3,0.2,2.2,0.6,2.5s0.9,0.6,1.5,0.6c0.5,0,1.1-0.1,1.8-0.3l0.2,1.7
			c-0.4,0.1-0.8,0.2-1.2,0.3c-0.4,0.1-0.9,0.1-1.3,0.1c-0.7,0-1.4-0.1-1.9-0.4c-0.5-0.3-1-0.7-1.3-1.4c-0.3-0.7-0.5-1.7-0.5-3V93.5
			H365.4z"/>
		<path class="st0" d="M380.2,119.1c-2.4,0-4.3-0.7-5.6-2.1c-1.3-1.4-2-3.7-2-6.8c0-2.5,0.4-4.5,1.1-5.9c0.7-1.5,1.7-2.5,2.9-3.1
			s2.6-0.9,4.1-0.9c2.2,0,3.8,0.6,4.9,1.8c1.1,1.2,1.6,3.2,1.6,5.9c0,0.1,0,0.3,0,0.5c0,0.2,0,0.4,0,0.6c-0.6,0-1.5,0.1-2.7,0.2
			c-1.2,0.1-2.7,0.2-4.3,0.3c-1.7,0.1-3.5,0.1-5.4,0.1c0,0.2,0,0.5,0,0.8c0,2.5,0.5,4.3,1.5,5.4c1,1,2.4,1.6,4.2,1.6
			c1.1,0,2.2-0.1,3.3-0.3c1.1-0.2,2.1-0.4,2.9-0.6l0.3,1.6c-0.9,0.3-1.9,0.5-3.1,0.7C382.8,119,381.6,119.1,380.2,119.1z
			 M374.9,108.1c1.6,0,3.2,0,4.6-0.1c1.5-0.1,2.7-0.1,3.7-0.2c1-0.1,1.7-0.1,2-0.2c0-2.1-0.4-3.6-1.1-4.5c-0.7-0.9-1.9-1.3-3.5-1.3
			c-0.8,0-1.7,0.2-2.5,0.5c-0.8,0.4-1.5,1-2.1,1.9C375.4,105.1,375,106.4,374.9,108.1z"/>
		<path class="st0" d="M392,109.9c0-3.3,0.7-5.8,2.1-7.3c1.4-1.6,3.5-2.4,6.1-2.4c0.8,0,1.7,0.1,2.7,0.2c1,0.1,1.8,0.3,2.6,0.5
			l-0.3,1.7c-0.7-0.2-1.5-0.3-2.4-0.4c-0.9-0.1-1.6-0.2-2.4-0.2c-2,0-3.5,0.6-4.6,1.9c-1.1,1.2-1.7,3.3-1.7,6.2
			c0,2.6,0.5,4.5,1.6,5.6c1.1,1.1,2.6,1.7,4.7,1.7c0.7,0,1.6-0.1,2.5-0.2c0.9-0.1,1.8-0.3,2.6-0.5l0.3,1.6c-0.8,0.2-1.7,0.4-2.8,0.5
			s-2.1,0.2-3,0.2c-2.6,0-4.6-0.7-6-2.2C392.7,115.3,392,113,392,109.9z"/>
		<path class="st0" d="M417,119.1c-1.6,0-2.8-0.5-3.6-1.4c-0.8-0.9-1.1-2.3-1.1-4.1v-11.4H409v-1.4l3.3-0.2l0.3-4.4h1.8v4.4h6.5v1.6
			h-6.5v11.3c0,1.3,0.3,2.3,0.8,2.9c0.5,0.6,1.3,0.9,2.5,0.9c0.6,0,1.2-0.1,1.7-0.2c0.6-0.1,1.1-0.3,1.7-0.4l0.3,1.7
			c-0.8,0.3-1.6,0.5-2.3,0.6C418.3,119,417.6,119.1,417,119.1z"/>
		<path class="st0" d="M427,96.4c-0.5,0-0.8-0.1-1-0.3c-0.2-0.2-0.3-0.5-0.3-1c0-0.5,0.1-0.8,0.3-1c0.2-0.2,0.5-0.3,1-0.3
			c0.5,0,0.8,0.1,1,0.3c0.2,0.2,0.3,0.5,0.3,1c0,0.5-0.1,0.8-0.3,1C427.9,96.3,427.5,96.4,427,96.4z M426,118.7v-18.2h2.1v18.2H426z
			"/>
		<path class="st0" d="M433.8,109.6c0-2.2,0.2-4,0.7-5.4c0.5-1.4,1.3-2.4,2.4-3s2.6-1,4.6-1c1.9,0,3.4,0.3,4.5,1s1.9,1.7,2.4,3
			c0.5,1.4,0.7,3.2,0.7,5.4c0,3.4-0.6,5.8-1.8,7.3s-3.2,2.2-5.9,2.2c-2.8,0-4.7-0.7-5.9-2.2S433.8,113,433.8,109.6z M436,109.6
			c0,1.9,0.2,3.5,0.6,4.6c0.4,1.1,1,1.9,1.8,2.4c0.8,0.5,1.9,0.7,3.2,0.7c1.3,0,2.4-0.2,3.2-0.7c0.8-0.5,1.4-1.3,1.8-2.4
			c0.4-1.1,0.6-2.7,0.6-4.6c0-1.9-0.2-3.4-0.5-4.5c-0.4-1.1-0.9-1.9-1.7-2.4c-0.8-0.5-1.9-0.7-3.3-0.7c-1.4,0-2.5,0.2-3.3,0.7
			c-0.8,0.5-1.4,1.3-1.7,2.4C436.1,106.2,436,107.7,436,109.6z"/>
		<path class="st0" d="M455,118.7v-18.2h1.9v1.6c1.1-0.6,2.2-1.1,3.2-1.4c1-0.4,2.2-0.5,3.4-0.5c1.6,0,2.8,0.4,3.7,1.2
			c0.9,0.8,1.3,2,1.3,3.7v13.6h-2.1v-13.1c0-1.1-0.3-2-0.9-2.7c-0.6-0.6-1.5-1-2.8-1c-1,0-2,0.2-2.9,0.5c-0.9,0.3-1.8,0.7-2.8,1.2
			v15H455z"/>
		<path class="st0" d="M473.6,118l0.4-1.6c0.7,0.3,1.6,0.5,2.7,0.7c1.1,0.2,2.2,0.3,3.2,0.3c1.6,0,2.8-0.3,3.6-0.8
			c0.8-0.5,1.2-1.3,1.2-2.4c0-1.1-0.4-1.9-1.3-2.4c-0.8-0.5-2.1-1-3.8-1.5c-1-0.3-2-0.6-2.8-1s-1.5-1-1.9-1.6s-0.7-1.5-0.7-2.5
			c0-1.5,0.6-2.7,1.7-3.6c1.1-0.9,2.8-1.3,5-1.3c0.9,0,1.8,0.1,2.7,0.2c0.9,0.2,1.6,0.4,2.3,0.6l-0.4,1.6c-0.6-0.2-1.3-0.4-2.1-0.5
			c-0.8-0.2-1.6-0.2-2.5-0.2c-1.5,0-2.7,0.3-3.4,0.8c-0.8,0.6-1.2,1.3-1.2,2.2c0,0.7,0.2,1.3,0.6,1.8c0.4,0.5,1,0.8,1.8,1.1
			c0.7,0.3,1.6,0.6,2.5,0.8c1.2,0.3,2.2,0.7,3,1.1c0.9,0.4,1.5,1,2,1.7c0.5,0.7,0.7,1.6,0.7,2.6c0,1.7-0.6,3-1.9,3.8
			c-1.3,0.8-3,1.2-5,1.2c-1.1,0-2.3-0.1-3.4-0.3C475.4,118.6,474.4,118.3,473.6,118z"/>
		<path class="st0" d="M491.2,117.5c0-0.5,0.1-0.8,0.3-1s0.5-0.3,1-0.3c0.5,0,0.8,0.1,1,0.3c0.2,0.2,0.3,0.5,0.3,1
			c0,0.5-0.1,0.8-0.3,1c-0.2,0.2-0.5,0.3-1,0.3c-0.5,0-0.8-0.1-1-0.3S491.2,118,491.2,117.5z"/>
	</g>
</g>
</svg>
