<svg xmlns="http://www.w3.org/2000/svg" viewBox="0 0 547.62 144.62"><defs><style>.cls-1,.cls-11,.cls-2{fill:#fff;}.cls-2{font-size:36.04px;font-family:GeoramaExpanded-ExtraBold, Georama Expanded;font-weight:800;}.cls-3{letter-spacing:-0.01em;}.cls-4{letter-spacing:0em;}.cls-5{letter-spacing:0em;}.cls-6{letter-spacing:-0.01em;}.cls-7{letter-spacing:0em;}.cls-8{letter-spacing:0em;}.cls-9{letter-spacing:0em;}.cls-10{letter-spacing:0em;}.cls-11{font-size:34.05px;font-family:Georama-Light, Georama;font-weight:300;letter-spacing:0.05em;}.cls-12{letter-spacing:0.06em;}.cls-13{letter-spacing:0.06em;}.cls-14{letter-spacing:0.06em;}.cls-15{letter-spacing:0.06em;}.cls-16{letter-spacing:0.04em;}.cls-17{letter-spacing:0.06em;}.cls-18{letter-spacing:0.05em;}.cls-19{letter-spacing:0.06em;}.cls-20{letter-spacing:0.05em;}.cls-21{letter-spacing:0.02em;}</style></defs><g id="Capa_2" data-name="Capa 2"><g id="Page_1" data-name="Page 1"><g id="Header"><polygon class="cls-1" points="522.28 0 0 0 0 25.34 522.28 25.34 522.28 144.62 547.62 144.62 547.62 25.34 547.62 0 522.28 0"/><rect class="cls-1" y="119.29" width="25.33" height="25.33" transform="translate(144.62 119.29) rotate(90)"/><text class="cls-2" transform="translate(24.41 84.39)"><tspan class="cls-3">G</tspan><tspan class="cls-4" x="31.61" y="0">ON</tspan><tspan class="cls-5" x="97.21" y="0">Z</tspan><tspan x="127.24" y="0">A</tspan><tspan class="cls-6" x="159.46" y="0">L</tspan><tspan class="cls-7" x="186.46" y="0">O</tspan><tspan class="cls-8" x="220.02" y="0">’</tspan><tspan x="230.36" y="0">S M</tspan><tspan class="cls-9" x="310.16" y="0">U</tspan><tspan x="342.96" y="0">S</tspan><tspan class="cls-10" x="373.1" y="0">E</tspan><tspan x="402.51" y="0">UM</tspan></text><text class="cls-11" transform="translate(26.68 118.72)">o<tspan class="cls-12" x="19.85" y="0">f </tspan><tspan class="cls-13" x="45.04" y="0">M</tspan><tspan class="cls-12" x="72.65" y="0">emori</tspan><tspan class="cls-14" x="165.43" y="0">e</tspan><tspan class="cls-12" x="184.87" y="0">s </tspan><tspan class="cls-15" x="213.09" y="0">a</tspan><tspan class="cls-12" x="232.19" y="0">nd </tspan><tspan class="cls-16" x="283.43" y="0">C</tspan><tspan class="cls-12" x="304.71" y="0">o</tspan><tspan class="cls-17" x="324.96" y="0">l</tspan><tspan class="cls-18" x="335.28" y="0">l</tspan><tspan class="cls-19" x="345.53" y="0">e</tspan><tspan class="cls-12" x="364.86" y="0">ction</tspan><tspan class="cls-20" x="447.08" y="0">s</tspan><tspan class="cls-21" x="463.77" y="0">.</tspan></text></g></g></g></svg>