<svg xmlns="http://www.w3.org/2000/svg" viewBox="0 0 443.608 117.1535">
  <defs>
    <style>
      .a {
        fill: #231f20;
      }
    </style>
  </defs>
  <g>
    <polygon class="a" points="423.085 0 0 0 0 20.523 423.085 20.523 423.085 117.154 443.608 117.154 443.608 20.523 443.608 0 423.085 0"/>
    <rect class="a" y="96.6308" width="20.5227" height="20.5227" transform="translate(117.1535 96.6308) rotate(90)"/>
    <g>
      <path class="a" d="M20.7737,52.298q0-5.5752,3.3482-8.3194t10.1336-2.7431q1.8875,0,3.3924.1181t2.8764.3536q1.3718.2373,2.8763.6494l-1.298,5.0742a40.5314,40.5314,0,0,0-7.4046-.7969q-3.511,0-5.0889,1.3272a5.2538,5.2538,0,0,0-1.5784,4.248q0,2.8917,1.5489,4.086A7.5383,7.5383,0,0,0,34.2259,57.49a17.4078,17.4078,0,0,0,3.8351-.3545v-2.39H33.7243v-4.749h10.62v10.62a30.5356,30.5356,0,0,1-11.2987,1.8584q-6.1662,0-9.2189-2.5078T20.7737,52.298Z"/>
      <path class="a" d="M59.4194,62.4757q-6.2837,0-9.5287-2.5224t-3.245-8.1563q0-5.458,3.0976-8.01t9.6761-2.5517q6.5491,0,9.632,2.5371t3.0828,7.9648q0,5.6938-3.2155,8.2159T59.4194,62.4757Zm0-4.9267a5.79,5.79,0,0,0,4.0859-1.3272q1.4306-1.3272,1.4308-4.3955T63.52,47.4454a5.8217,5.8217,0,0,0-4.1006-1.3125,6.1057,6.1057,0,0,0-4.0563,1.253q-1.49,1.2554-1.49,4.44a7.0663,7.0663,0,0,0,.6932,3.4072,3.9446,3.9446,0,0,0,1.9323,1.7842A7.366,7.366,0,0,0,59.4194,57.549Z"/>
      <path class="a" d="M75.1137,62.1808v-20.68h6.3427l9.5582,11.5342V41.53h6.3721v20.65H91.0736L81.5153,51.2365V62.1808Z"/>
      <path class="a" d="M100.2185,62.1808V57.3722l12.2722-10.68v-.0293H100.8675V41.53h21.1814V46.339L110.0717,57.0177v.03h12.8622v5.1328Z"/>
      <path class="a" d="M124.0548,62.1808l9.1157-20.68h7.8472l9.1157,20.68h-8.0242L140.87,58.965h-8.0537l-1.2095,3.2158Zm10.3843-8.1719h4.8085l-2.3895-7.2568Z"/>
      <path class="a" d="M152.2573,62.1808V41.53h7.08v14.957h12.7148v5.6934Z"/>
      <path class="a" d="M186.1533,62.4757q-6.2836,0-9.5287-2.5224T173.38,51.797q0-5.458,3.0975-8.01t9.6762-2.5517q6.5491,0,9.6319,2.5371t3.0829,7.9648q0,5.6938-3.2155,8.2159T186.1533,62.4757Zm0-4.9267a5.79,5.79,0,0,0,4.0859-1.3272q1.43-1.3272,1.4308-4.3955t-1.4161-4.3809a5.8217,5.8217,0,0,0-4.1006-1.3125,6.1057,6.1057,0,0,0-4.0563,1.253q-1.49,1.2554-1.49,4.44a7.0663,7.0663,0,0,0,.6932,3.4072,3.9446,3.9446,0,0,0,1.9323,1.7842A7.366,7.366,0,0,0,186.1533,57.549Z"/>
      <path class="a" d="M205.4172,49.4953l-4.779-.5606a18.5085,18.5085,0,0,0,.9145-5.3691q0-.53-.0295-1.0323t-.0885-1.0029h5.8411c0,.1768.0046.3535.0147.5313s.0148.3437.0148.5009a13.8544,13.8544,0,0,1-.472,3.82A11.8308,11.8308,0,0,1,205.4172,49.4953Z"/>
      <path class="a" d="M231.1413,42.3859l-1.21,4.9267a20.2059,20.2059,0,0,0-2.4632-.5605q-1.52-.2652-3.26-.4277t-3.3632-.1622a8.594,8.594,0,0,0-2.92.3682q-.9444.3691-.944,1.1065a.7821.7821,0,0,0,.5752.7373,10.118,10.118,0,0,0,2.0946.458q1.519.2211,4.3514.6045a22.1353,22.1353,0,0,1,4.9414,1.18,5.7019,5.7019,0,0,1,2.67,1.9327,5.2011,5.2011,0,0,1,.8259,3.0234,5.5234,5.5234,0,0,1-3.245,5.2217q-3.2456,1.6816-9.2338,1.6816-1.888,0-3.894-.1767t-3.9384-.5313a32.4531,32.4531,0,0,1-3.5843-.8555l1.2685-4.9267q1.6817.5023,3.57.8848t3.7761.5908a32.8857,32.8857,0,0,0,3.57.206,8.9837,8.9837,0,0,0,3.2156-.3838,1.2,1.2,0,0,0,.8555-1.0908q0-.5318-.8555-.7822a20.3731,20.3731,0,0,0-2.7878-.501q-1.9326-.2505-5.1184-.7822a10.9182,10.9182,0,0,1-5.1331-2.1094,4.94,4.94,0,0,1-1.5636-3.8789,5.6779,5.6779,0,0,1,2.8763-5.1338q2.8764-1.77,8.983-1.77a42.3857,42.3857,0,0,1,9.9417,1.15Z"/>
      <path class="a" d="M245.2718,62.1808V41.53H252.5l6.1065,9.9414,6.1952-9.9414h6.8737v20.65h-6.52V50.0558l-5.1921,8.3486h-3.186l-4.9856-8.1123V62.1808Z"/>
      <path class="a" d="M275.3624,54.422V41.53h6.9327V54.0382a2.631,2.631,0,0,0,1.3275,2.5078,7.2828,7.2828,0,0,0,3.54.7373,6.4832,6.4832,0,0,0,3.5254-.7959,2.7178,2.7178,0,0,0,1.2242-2.4492V41.53h6.9916V54.422q0,4.19-2.9353,6.1211-2.9358,1.9336-8.8649,1.9326-5.8709,0-8.8059-1.9326Q275.3619,58.6125,275.3624,54.422Z"/>
      <path class="a" d="M323.3011,42.3859l-1.21,4.9267a20.2059,20.2059,0,0,0-2.4632-.5605q-1.52-.2652-3.26-.4277t-3.3632-.1622a8.594,8.594,0,0,0-2.9205.3682q-.9444.3691-.944,1.1065a.7821.7821,0,0,0,.5752.7373,10.118,10.118,0,0,0,2.0946.458q1.519.2211,4.3514.6045a22.1353,22.1353,0,0,1,4.9414,1.18,5.7024,5.7024,0,0,1,2.67,1.9327,5.2011,5.2011,0,0,1,.8259,3.0234,5.5234,5.5234,0,0,1-3.245,5.2217q-3.2455,1.6816-9.2338,1.6816-1.8882,0-3.894-.1767t-3.9384-.5313a32.4531,32.4531,0,0,1-3.5843-.8555l1.2685-4.9267q1.6817.5023,3.57.8848t3.7761.5908a32.8843,32.8843,0,0,0,3.57.206,8.9837,8.9837,0,0,0,3.2156-.3838,1.2,1.2,0,0,0,.8555-1.0908q0-.5318-.8555-.7822a20.3731,20.3731,0,0,0-2.7878-.501q-1.9326-.2505-5.1185-.7822a10.9182,10.9182,0,0,1-5.133-2.1094A4.94,4.94,0,0,1,301.5,48.1388a5.6779,5.6779,0,0,1,2.8763-5.1338q2.8764-1.77,8.9829-1.77a42.3857,42.3857,0,0,1,9.9418,1.15Z"/>
      <path class="a" d="M327.1067,62.1808V41.53H347.61v5.2217H334.0688v2.625H346.754v4.7207H334.0688v2.8906h14.2488v5.1924Z"/>
      <path class="a" d="M350.9428,54.422V41.53h6.9328V54.0382a2.631,2.631,0,0,0,1.3275,2.5078,7.2824,7.2824,0,0,0,3.54.7373,6.483,6.483,0,0,0,3.5254-.7959,2.7179,2.7179,0,0,0,1.2243-2.4492V41.53h6.9915V54.422q0,4.19-2.9353,6.1211-2.9356,1.9336-8.8648,1.9326-5.871,0-8.8059-1.9326Q350.9423,58.6125,350.9428,54.422Z"/>
      <path class="a" d="M378.1718,62.1808V41.53H385.4l6.1066,9.9414,6.1952-9.9414h6.8736v20.65h-6.52V50.0558l-5.1922,8.3486h-3.186l-4.9856-8.1123V62.1808Z"/>
    </g>
    <g>
      <path class="a" d="M22.774,90.2863a13.4847,13.4847,0,0,1,.5991-4.4024A4.458,4.458,0,0,1,25.3515,83.39a7.5177,7.5177,0,0,1,3.7478-.794,7.451,7.451,0,0,1,3.72.794,4.46,4.46,0,0,1,1.9784,2.4941,13.4928,13.4928,0,0,1,.5991,4.4024q0,4.1528-1.4629,5.9492t-4.8345,1.7969q-3.4,0-4.8624-1.7969T22.774,90.2863Zm1.7555,0a12.3878,12.3878,0,0,0,.46,3.7617A3.465,3.465,0,0,0,26.4521,96.04a5.1245,5.1245,0,0,0,2.6472.6,5.0634,5.0634,0,0,0,2.6193-.6,3.465,3.465,0,0,0,1.4629-1.9922,12.3878,12.3878,0,0,0,.46-3.7617,12.75,12.75,0,0,0-.4319-3.6924,3.4379,3.4379,0,0,0-1.421-1.9922,5.0843,5.0843,0,0,0-2.689-.6133,5.1434,5.1434,0,0,0-2.7168.6133,3.4346,3.4346,0,0,0-1.4211,1.9922A12.74,12.74,0,0,0,24.53,90.2863Z"/>
      <path class="a" d="M40.886,97.754V85.4376H38.4618V84.3234l2.4242-.1953v-.6407q0-3.5112,1.2678-5.0713A4.4157,4.4157,0,0,1,45.79,76.8556a10.7858,10.7858,0,0,1,1.6441.125,11.4314,11.4314,0,0,1,1.7555.4326l-.2509,1.2813a10.1522,10.1522,0,0,0-2.8143-.4453,3.0624,3.0624,0,0,0-2.6471,1.2255,7.0238,7.0238,0,0,0-.8917,4.04v.6133h4.7091v1.31H42.5857V97.754Z"/>
      <path class="a" d="M60.5857,97.754V78.2492h1.8111L69.0287,88.754l6.6318-10.5048H77.388V97.754H75.7719V80.8126L69.391,90.8156h-.8639L62.23,80.8683V97.754Z"/>
      <path class="a" d="M88.4223,98.0324a5.98,5.98,0,0,1-4.57-1.7129q-1.6162-1.7139-1.6161-5.5869a10.9579,10.9579,0,0,1,.8917-4.8487,5.412,5.412,0,0,1,2.3964-2.5361,7.4405,7.4405,0,0,1,3.3716-.752,5.182,5.182,0,0,1,4.04,1.4766q1.3374,1.4781,1.3375,4.793c0,.1113-.0049.2558-.014.4316s-.0139.33-.0139.46q-.7249.0556-2.2152.1806t-3.5528.2237q-2.0625.0981-4.4584.0976-.0279.3061-.0278.668,0,3.1215,1.2261,4.4033a4.5539,4.5539,0,0,0,3.4552,1.2813,17.9925,17.9925,0,0,0,2.7307-.209A22.273,22.273,0,0,0,93.8,95.9152l.2507,1.31a15.5633,15.5633,0,0,1-2.5357.585A20.3836,20.3836,0,0,1,88.4223,98.0324Zm-4.3747-9q2.0062,0,3.79-.0694t3.0373-.1533q1.2539-.0836,1.6719-.14a5.74,5.74,0,0,0-.92-3.6641,3.496,3.496,0,0,0-2.8422-1.1006,5.1978,5.1978,0,0,0-2.0481.4316,4.006,4.006,0,0,0-1.7555,1.5469A6.9055,6.9055,0,0,0,84.0476,89.0324Z"/>
      <path class="a" d="M98.8155,97.754v-14.88h1.5883v1.31a14.3482,14.3482,0,0,1,2.3268-1.1006,7.3812,7.3812,0,0,1,2.55-.4316,4.0356,4.0356,0,0,1,2.062.46,2.9947,2.9947,0,0,1,1.17,1.2119,16.3641,16.3641,0,0,1,2.2849-1.1709,7.7117,7.7117,0,0,1,3.0373-.5567,3.8736,3.8736,0,0,1,2.257.585,3.1786,3.1786,0,0,1,1.1842,1.5049,5.386,5.386,0,0,1,.3484,1.9228V97.754h-1.7v-10.7a4.6859,4.6859,0,0,0-.209-1.3789,2.2207,2.2207,0,0,0-.822-1.1425,2.8836,2.8836,0,0,0-1.7555-.46,6.1544,6.1544,0,0,0-2.3823.4463,13.013,13.013,0,0,0-1.8809.9473,2.9728,2.9728,0,0,1,.1811.7519,7.08,7.08,0,0,1,.0418.7529V97.754h-1.7V87.0822a4.34,4.34,0,0,0-.2229-1.3516,2.3628,2.3628,0,0,0-.8081-1.1426,2.7566,2.7566,0,0,0-1.7275-.46,6.04,6.04,0,0,0-2.1177.3623,11.5326,11.5326,0,0,0-1.9784.9756V97.754Z"/>
      <path class="a" d="M122.3332,90.2863a13.4847,13.4847,0,0,1,.5991-4.4024,4.458,4.458,0,0,1,1.9784-2.4941,9.1763,9.1763,0,0,1,7.4677,0,4.46,4.46,0,0,1,1.9784,2.4941,13.4928,13.4928,0,0,1,.5991,4.4024q0,4.1528-1.4629,5.9492t-4.8345,1.7969q-3.4,0-4.8624-1.7969T122.3332,90.2863Zm1.7555,0a12.3878,12.3878,0,0,0,.46,3.7617,3.465,3.465,0,0,0,1.4629,1.9922,5.1245,5.1245,0,0,0,2.6472.6,5.0634,5.0634,0,0,0,2.6193-.6,3.465,3.465,0,0,0,1.4629-1.9922,12.3878,12.3878,0,0,0,.46-3.7617,12.75,12.75,0,0,0-.4319-3.6924,3.4379,3.4379,0,0,0-1.421-1.9922,5.084,5.084,0,0,0-2.689-.6133,5.1434,5.1434,0,0,0-2.7168.6133,3.4346,3.4346,0,0,0-1.4211,1.9922A12.74,12.74,0,0,0,124.0887,90.2863Z"/>
      <path class="a" d="M141.2252,82.8742v1.8671a9.3829,9.3829,0,0,1,2.3546-1.63,5.6015,5.6015,0,0,1,2.3545-.5157,7.516,7.516,0,0,1,2.2014.3067l-.2787,1.56a7.6625,7.6625,0,0,0-2.09-.3066,5.3452,5.3452,0,0,0-2.1456.4736,8.3764,8.3764,0,0,0-2.285,1.5879V97.754h-1.7v-14.88Z"/>
      <path class="a" d="M152.6218,79.5031a1.1815,1.1815,0,0,1-.8359-.2237,1.5011,1.5011,0,0,1,0-1.5742,1.7761,1.7761,0,0,1,1.6718,0,1.5011,1.5011,0,0,1,0,1.5742A1.183,1.183,0,0,1,152.6218,79.5031ZM151.758,97.754v-14.88h1.7v14.88Z"/>
      <path class="a" d="M164.3528,98.0324a5.98,5.98,0,0,1-4.57-1.7129q-1.6163-1.7139-1.6161-5.5869a10.9564,10.9564,0,0,1,.8918-4.8487,5.4118,5.4118,0,0,1,2.3963-2.5361,7.4408,7.4408,0,0,1,3.3716-.752,5.182,5.182,0,0,1,4.04,1.4766q1.3374,1.4781,1.3375,4.793c0,.1113-.0048.2558-.014.4316s-.0139.33-.0139.46q-.725.0556-2.2152.1806t-3.5528.2237q-2.0625.0981-4.4583.0976-.0281.3061-.0279.668,0,3.1215,1.2261,4.4033a4.554,4.554,0,0,0,3.4552,1.2813,17.9925,17.9925,0,0,0,2.7307-.209,22.273,22.273,0,0,0,2.3964-.4873l.2507,1.31a15.5619,15.5619,0,0,1-2.5356.585A20.3855,20.3855,0,0,1,164.3528,98.0324Zm-4.3748-9q2.0062,0,3.79-.0694t3.0372-.1533q1.2539-.0836,1.6719-.14a5.7393,5.7393,0,0,0-.92-3.6641,3.4959,3.4959,0,0,0-2.8421-1.1006,5.1974,5.1974,0,0,0-2.0481.4316,4.0049,4.0049,0,0,0-1.7555,1.5469A6.9055,6.9055,0,0,0,159.978,89.0324Z"/>
      <path class="a" d="M173.5757,97.1408l.3343-1.31a11.1463,11.1463,0,0,0,2.2432.6,15.1571,15.1571,0,0,0,2.6053.2363,5.3549,5.3549,0,0,0,2.94-.6689,2.4092,2.4092,0,0,0-.0139-3.9424,12.1907,12.1907,0,0,0-3.1487-1.24,11.1287,11.1287,0,0,1-2.2849-.85,4.3946,4.3946,0,0,1-1.5883-1.3233,3.38,3.38,0,0,1-.5852-2.0342,3.5423,3.5423,0,0,1,1.3654-2.9257,6.44,6.44,0,0,1,4.0682-1.087,12.6193,12.6193,0,0,1,2.2293.1953,11.8233,11.8233,0,0,1,1.8668.4737l-.3064,1.3369q-.7524-.2226-1.7137-.418a10.4515,10.4515,0,0,0-2.076-.1953,4.8,4.8,0,0,0-2.8143.6836,2.1393,2.1393,0,0,0-.9474,1.8242,2.0163,2.0163,0,0,0,.5294,1.4492,3.84,3.84,0,0,0,1.4351.9063q.9051.3486,2.02.6543a13.8572,13.8572,0,0,1,2.4939.9053,4.1149,4.1149,0,0,1,1.6162,1.3515,3.728,3.728,0,0,1,.5712,2.1455,3.4461,3.4461,0,0,1-1.56,3.1211,7.5288,7.5288,0,0,1-4.1239,1.003,17.3722,17.3722,0,0,1-2.7726-.2227A9.6486,9.6486,0,0,1,173.5757,97.1408Z"/>
      <path class="a" d="M196.9259,94.3263a3.5233,3.5233,0,0,1,1.0309-2.7305,6.54,6.54,0,0,1,3.0512-1.3935,41.8481,41.8481,0,0,1,4.9739-.7237V87.0538a2.7291,2.7291,0,0,0-.8917-2.1875,4.0166,4.0166,0,0,0-2.6751-.7656,15.1726,15.1726,0,0,0-1.9365.1387,13.5857,13.5857,0,0,0-2.2432.5019l-.3343-1.4209a15.86,15.86,0,0,1,4.5976-.7246,5.9035,5.9035,0,0,1,3.8593,1.1006,4.0848,4.0848,0,0,1,1.3236,3.33v7.8018a2.306,2.306,0,0,0,.2787,1.3378.928.928,0,0,0,.78.3624,2.105,2.105,0,0,0,.836-.168l.2229,1.2822a3.4065,3.4065,0,0,1-1.5883.39q-1.9226,0-2.1176-2.2012a12.8752,12.8752,0,0,1-2.41,1.5185,6.91,6.91,0,0,1-3.1069.6827,3.7269,3.7269,0,0,1-2.6472-.9336A3.605,3.605,0,0,1,196.9259,94.3263Zm1.7275-.167a2.6448,2.6448,0,0,0,.6688,1.9512,2.4116,2.4116,0,0,0,1.7834.668,5.9911,5.9911,0,0,0,2.5774-.6124,9.2034,9.2034,0,0,0,2.2989-1.5332V90.5646a32.196,32.196,0,0,0-3.8036.5019,6.3152,6.3152,0,0,0-2.5914,1.045A2.4172,2.4172,0,0,0,198.6534,94.1593Z"/>
      <path class="a" d="M213.5326,97.754v-14.88h1.5882v1.31a18.15,18.15,0,0,1,2.6332-1.1562,8.6353,8.6353,0,0,1,2.8-.4317,4.1729,4.1729,0,0,1,3.0094,1.0166,3.9678,3.9678,0,0,1,1.0588,2.9961V97.754h-1.7V87.0265a3.0389,3.0389,0,0,0-.7384-2.1738,2.9935,2.9935,0,0,0-2.271-.78,7.2241,7.2241,0,0,0-2.3544.376A15.5341,15.5341,0,0,0,215.26,85.466V97.754Z"/>
      <path class="a" d="M239.4187,97.754l-.2787-1.3935a10.6776,10.6776,0,0,1-2.452,1.2685,7.3142,7.3142,0,0,1-2.3964.4034,4.2149,4.2149,0,0,1-3.6781-1.8946,9.5582,9.5582,0,0,1-1.31-5.4609q0-4.2086,1.6022-6.1445a6.0864,6.0864,0,0,1,4.9739-1.9366q.7523,0,1.5882.083a13.1146,13.1146,0,0,1,1.6719.2793V77.1339h1.7276v20.62Zm-.2787-2.73V84.2951q-.9475-.1949-1.7-.292a10.994,10.994,0,0,0-1.4212-.0977,4.4974,4.4974,0,0,0-3.7617,1.5186q-1.1984,1.519-1.1981,5.1406a8.3227,8.3227,0,0,0,.9891,4.4863,3.1222,3.1222,0,0,0,2.7726,1.5332,6.0345,6.0345,0,0,0,2.062-.3623A10.832,10.832,0,0,0,239.14,95.0236Z"/>
      <path class="a" d="M254.9111,88.3634q0-5.5722,2.1733-7.9834a8.0814,8.0814,0,0,1,6.3254-2.41,21.8333,21.8333,0,0,1,2.7307.1533,15.573,15.573,0,0,1,2.4243.5156l-.3623,1.4492a19.2253,19.2253,0,0,0-2.2849-.4463,18.7306,18.7306,0,0,0-2.3684-.1386,7.7623,7.7623,0,0,0-3.7619.8359,5.2879,5.2879,0,0,0-2.3266,2.7725,14.0665,14.0665,0,0,0-.7942,5.2246,12.4442,12.4442,0,0,0,.7663,4.82,5.06,5.06,0,0,0,2.2431,2.5771,7.5673,7.5673,0,0,0,3.6224.795,21.433,21.433,0,0,0,2.8283-.1954,16.0555,16.0555,0,0,0,2.6333-.5576l.3343,1.4492a20.2808,20.2808,0,0,1-6.0188.8077,9.8048,9.8048,0,0,1-4.4444-.919,5.9833,5.9833,0,0,1-2.7725-3.0371A14.2226,14.2226,0,0,1,254.9111,88.3634Z"/>
      <path class="a" d="M272.1594,90.2863a13.4847,13.4847,0,0,1,.5991-4.4024,4.458,4.458,0,0,1,1.9784-2.4941,9.1763,9.1763,0,0,1,7.4677,0,4.46,4.46,0,0,1,1.9784,2.4941,13.4955,13.4955,0,0,1,.5991,4.4024q0,4.1528-1.4629,5.9492t-4.8345,1.7969q-3.4,0-4.8624-1.7969T272.1594,90.2863Zm1.7555,0a12.3878,12.3878,0,0,0,.46,3.7617,3.465,3.465,0,0,0,1.4629,1.9922,5.1245,5.1245,0,0,0,2.6472.6,5.0637,5.0637,0,0,0,2.6193-.6,3.4654,3.4654,0,0,0,1.4629-1.9922,12.3878,12.3878,0,0,0,.46-3.7617,12.7538,12.7538,0,0,0-.4319-3.6924,3.4379,3.4379,0,0,0-1.421-1.9922,5.0843,5.0843,0,0,0-2.689-.6133,5.1434,5.1434,0,0,0-2.7168.6133,3.4341,3.4341,0,0,0-1.4211,1.9922A12.74,12.74,0,0,0,273.9149,90.2863Z"/>
      <path class="a" d="M291.1628,77.1339v16.83a2.943,2.943,0,0,0,.5016,2.0762,1.7115,1.7115,0,0,0,1.1982.46,5.1687,5.1687,0,0,0,1.4489-.2509l.1951,1.3935a6.8943,6.8943,0,0,1-.9613.2783,5.0677,5.0677,0,0,1-1.0728.1114,3.64,3.64,0,0,1-1.5883-.32,2.2155,2.2155,0,0,1-1.0449-1.17,6.23,6.23,0,0,1-.3762-2.4385v-16.97Z"/>
      <path class="a" d="M299.6057,77.1339v16.83a2.943,2.943,0,0,0,.5016,2.0762,1.7115,1.7115,0,0,0,1.1982.46,5.1692,5.1692,0,0,0,1.4489-.2509l.195,1.3935a6.89,6.89,0,0,1-.9613.2783,5.0667,5.0667,0,0,1-1.0727.1114,3.6393,3.6393,0,0,1-1.5883-.32,2.2151,2.2151,0,0,1-1.0449-1.17,6.2285,6.2285,0,0,1-.3762-2.4385v-16.97Z"/>
      <path class="a" d="M311.7546,98.0324a5.98,5.98,0,0,1-4.57-1.7129q-1.6162-1.7139-1.6161-5.5869a10.9579,10.9579,0,0,1,.8917-4.8487,5.412,5.412,0,0,1,2.3964-2.5361,7.44,7.44,0,0,1,3.3716-.752,5.1821,5.1821,0,0,1,4.04,1.4766q1.3374,1.4781,1.3375,4.793c0,.1113-.0049.2558-.014.4316s-.014.33-.014.46q-.7248.0556-2.2152.1806t-3.5527.2237q-2.0625.0981-4.4584.0976-.028.3061-.0278.668,0,3.1215,1.2261,4.4033a4.5539,4.5539,0,0,0,3.4552,1.2813,17.9925,17.9925,0,0,0,2.7307-.209,22.2708,22.2708,0,0,0,2.3963-.4873l.2508,1.31a15.5633,15.5633,0,0,1-2.5357.585A20.3836,20.3836,0,0,1,311.7546,98.0324Zm-4.3747-9q2.0062,0,3.79-.0694t3.0373-.1533q1.2539-.0836,1.6718-.14a5.74,5.74,0,0,0-.92-3.6641,3.4962,3.4962,0,0,0-2.8422-1.1006,5.1978,5.1978,0,0,0-2.0481.4316,4.006,4.006,0,0,0-1.7555,1.5469A6.9055,6.9055,0,0,0,307.38,89.0324Z"/>
      <path class="a" d="M321.3957,90.5372q0-4.0679,1.7555-6.0048a6.4234,6.4234,0,0,1,5.0156-1.9366,16.7384,16.7384,0,0,1,2.1735.1534,15.8645,15.8645,0,0,1,2.09.4033l-.2786,1.3662a17.6279,17.6279,0,0,0-1.9366-.3623,14.74,14.74,0,0,0-1.9366-.14,4.804,4.804,0,0,0-3.8035,1.5323q-1.3518,1.5336-1.3514,5.0439,0,3.2051,1.3374,4.6113a5.0146,5.0146,0,0,0,3.8175,1.4073,14.9736,14.9736,0,0,0,2.0342-.1534q1.1139-.1523,2.09-.3759l.2786,1.3379a20.92,20.92,0,0,1-2.2709.4316,17.9385,17.9385,0,0,1-2.4661.1807,6.27,6.27,0,0,1-4.89-1.8252Q321.3955,94.3833,321.3957,90.5372Z"/>
      <path class="a" d="M341.8481,98.0324a3.6,3.6,0,0,1-2.94-1.128,5.12,5.12,0,0,1-.9335-3.33V84.212H335.3V83.07l2.675-.1953.2229-3.6221h1.4769v3.6221h5.3222V84.212h-5.3222v9.251a3.6063,3.6063,0,0,0,.6269,2.3545,2.55,2.55,0,0,0,2.0481.7383,7.1617,7.1617,0,0,0,1.4211-.14,14.2526,14.2526,0,0,0,1.4211-.3623l.2508,1.3663a11.8026,11.8026,0,0,1-1.9088.4736A11.1384,11.1384,0,0,1,341.8481,98.0324Z"/>
      <path class="a" d="M350.0681,79.5031a1.182,1.182,0,0,1-.836-.2237,1.5011,1.5011,0,0,1,0-1.5742,1.7763,1.7763,0,0,1,1.6719,0,1.5011,1.5011,0,0,1,0,1.5742A1.183,1.183,0,0,1,350.0681,79.5031Zm-.8638,18.2509v-14.88h1.7v14.88Z"/>
      <path class="a" d="M355.6131,90.2863a13.4847,13.4847,0,0,1,.5991-4.4024,4.458,4.458,0,0,1,1.9784-2.4941,9.1763,9.1763,0,0,1,7.4677,0,4.46,4.46,0,0,1,1.9784,2.4941,13.4928,13.4928,0,0,1,.5991,4.4024q0,4.1528-1.4629,5.9492t-4.8345,1.7969q-3.4,0-4.8624-1.7969T355.6131,90.2863Zm1.7555,0a12.3878,12.3878,0,0,0,.46,3.7617,3.4654,3.4654,0,0,0,1.4629,1.9922,5.1247,5.1247,0,0,0,2.6472.6,5.0634,5.0634,0,0,0,2.6193-.6,3.465,3.465,0,0,0,1.4629-1.9922,12.3878,12.3878,0,0,0,.46-3.7617,12.75,12.75,0,0,0-.4319-3.6924,3.4379,3.4379,0,0,0-1.421-1.9922,5.084,5.084,0,0,0-2.689-.6133,5.1434,5.1434,0,0,0-2.7168.6133,3.4346,3.4346,0,0,0-1.4211,1.9922A12.74,12.74,0,0,0,357.3686,90.2863Z"/>
      <path class="a" d="M372.9168,97.754v-14.88h1.5883v1.31a18.1456,18.1456,0,0,1,2.6332-1.1562,8.6348,8.6348,0,0,1,2.8-.4317,4.1731,4.1731,0,0,1,3.0094,1.0166,3.9678,3.9678,0,0,1,1.0588,2.9961V97.754h-1.7V87.0265a3.0389,3.0389,0,0,0-.7384-2.1738,2.9935,2.9935,0,0,0-2.271-.78,7.2247,7.2247,0,0,0-2.3545.376,15.5378,15.5378,0,0,0-2.2988,1.0176V97.754Z"/>
      <path class="a" d="M388.1866,97.1408l.3344-1.31a11.1452,11.1452,0,0,0,2.2431.6,15.1583,15.1583,0,0,0,2.6054.2363,5.3554,5.3554,0,0,0,2.94-.6689,2.4092,2.4092,0,0,0-.0139-3.9424,12.1907,12.1907,0,0,0-3.1487-1.24,11.1265,11.1265,0,0,1-2.2849-.85,4.3929,4.3929,0,0,1-1.5883-1.3233,3.38,3.38,0,0,1-.5852-2.0342,3.5423,3.5423,0,0,1,1.3654-2.9257,6.44,6.44,0,0,1,4.0682-1.087,12.6173,12.6173,0,0,1,2.2292.1953,11.8247,11.8247,0,0,1,1.8669.4737l-.3064,1.3369q-.7524-.2226-1.7138-.418a10.45,10.45,0,0,0-2.0759-.1953,4.8,4.8,0,0,0-2.8143.6836,2.1391,2.1391,0,0,0-.9474,1.8242,2.0163,2.0163,0,0,0,.5294,1.4492,3.84,3.84,0,0,0,1.4351.9063q.905.3486,2.02.6543a13.8572,13.8572,0,0,1,2.4939.9053,4.1163,4.1163,0,0,1,1.6162,1.3515,3.728,3.728,0,0,1,.5712,2.1455,3.4459,3.4459,0,0,1-1.56,3.1211,7.5286,7.5286,0,0,1-4.1239,1.003,17.37,17.37,0,0,1-2.7725-.2227A9.65,9.65,0,0,1,388.1866,97.1408Z"/>
      <path class="a" d="M402.565,96.7785a1.1892,1.1892,0,0,1,.209-.8077,1.0829,1.0829,0,0,1,.7942-.2226,1.1324,1.1324,0,0,1,.822.2226,1.6668,1.6668,0,0,1,0,1.6162,1.1319,1.1319,0,0,1-.822.2227,1.0824,1.0824,0,0,1-.7942-.2227A1.19,1.19,0,0,1,402.565,96.7785Z"/>
    </g>
  </g>
</svg>
